<svg width="97" height="25" viewBox="0 0 97 25" fill="none" xmlns="http://www.w3.org/2000/svg">
<path d="M41.48 12.72C42.8667 12.72 43.9667 13.14 44.78 13.98C45.6067 14.82 46.02 15.9867 46.02 17.48V24H42.62V17.94C42.62 17.22 42.4267 16.6667 42.04 16.28C41.6667 15.88 41.1467 15.68 40.48 15.68C39.8133 15.68 39.2867 15.88 38.9 16.28C38.5267 16.6667 38.34 17.22 38.34 17.94V24H34.94V17.94C34.94 17.22 34.7467 16.6667 34.36 16.28C33.9867 15.88 33.4667 15.68 32.8 15.68C32.1333 15.68 31.6067 15.88 31.22 16.28C30.8467 16.6667 30.66 17.22 30.66 17.94V24H27.24V12.84H30.66V14.24C31.0067 13.7733 31.46 13.4067 32.02 13.14C32.58 12.86 33.2133 12.72 33.92 12.72C34.76 12.72 35.5067 12.9 36.16 13.26C36.8267 13.62 37.3467 14.1333 37.72 14.8C38.1067 14.1867 38.6333 13.6867 39.3 13.3C39.9667 12.9133 40.6933 12.72 41.48 12.72ZM47.1319 18.4C47.1319 17.2533 47.3452 16.2467 47.7719 15.38C48.2119 14.5133 48.8052 13.8467 49.5519 13.38C50.2985 12.9133 51.1319 12.68 52.0519 12.68C52.8385 12.68 53.5252 12.84 54.1119 13.16C54.7119 13.48 55.1719 13.9 55.4919 14.42V12.84H58.9119V24H55.4919V22.42C55.1585 22.94 54.6919 23.36 54.0919 23.68C53.5052 24 52.8185 24.16 52.0319 24.16C51.1252 24.16 50.2985 23.9267 49.5519 23.46C48.8052 22.98 48.2119 22.3067 47.7719 21.44C47.3452 20.56 47.1319 19.5467 47.1319 18.4ZM55.4919 18.42C55.4919 17.5667 55.2519 16.8933 54.7719 16.4C54.3052 15.9067 53.7319 15.66 53.0519 15.66C52.3719 15.66 51.7919 15.9067 51.3119 16.4C50.8452 16.88 50.6119 17.5467 50.6119 18.4C50.6119 19.2533 50.8452 19.9333 51.3119 20.44C51.7919 20.9333 52.3719 21.18 53.0519 21.18C53.7319 21.18 54.3052 20.9333 54.7719 20.44C55.2519 19.9467 55.4919 19.2733 55.4919 18.42ZM67.5861 12.72C68.8928 12.72 69.9328 13.1467 70.7061 14C71.4928 14.84 71.8861 16 71.8861 17.48V24H68.4861V17.94C68.4861 17.1933 68.2928 16.6133 67.9061 16.2C67.5194 15.7867 66.9994 15.58 66.3461 15.58C65.6928 15.58 65.1728 15.7867 64.7861 16.2C64.3994 16.6133 64.2061 17.1933 64.2061 17.94V24H60.7861V12.84H64.2061V14.32C64.5528 13.8267 65.0194 13.44 65.6061 13.16C66.1928 12.8667 66.8528 12.72 67.5861 12.72ZM79.8827 21.1V24H78.1427C76.9027 24 75.936 23.7 75.2427 23.1C74.5493 22.4867 74.2027 21.4933 74.2027 20.12V15.68H72.8427V12.84H74.2027V10.12H77.6227V12.84H79.8627V15.68H77.6227V20.16C77.6227 20.4933 77.7027 20.7333 77.8627 20.88C78.0227 21.0267 78.2893 21.1 78.6627 21.1H79.8827ZM82.9077 11.68C82.3077 11.68 81.8143 11.5067 81.4277 11.16C81.0543 10.8 80.8677 10.36 80.8677 9.84C80.8677 9.30667 81.0543 8.86667 81.4277 8.52C81.8143 8.16 82.3077 7.98 82.9077 7.98C83.4943 7.98 83.9743 8.16 84.3477 8.52C84.7343 8.86667 84.9277 9.30667 84.9277 9.84C84.9277 10.36 84.7343 10.8 84.3477 11.16C83.9743 11.5067 83.4943 11.68 82.9077 11.68ZM84.6077 12.84V24H81.1877V12.84H84.6077ZM91.0261 24.16C90.0528 24.16 89.1861 23.9933 88.4261 23.66C87.6661 23.3267 87.0661 22.8733 86.6261 22.3C86.1861 21.7133 85.9394 21.06 85.8861 20.34H89.2661C89.3061 20.7267 89.4861 21.04 89.8061 21.28C90.1261 21.52 90.5194 21.64 90.9861 21.64C91.4128 21.64 91.7394 21.56 91.9661 21.4C92.2061 21.2267 92.3261 21.0067 92.3261 20.74C92.3261 20.42 92.1594 20.1867 91.8261 20.04C91.4928 19.88 90.9528 19.7067 90.2061 19.52C89.4061 19.3333 88.7394 19.14 88.2061 18.94C87.6728 18.7267 87.2128 18.4 86.8261 17.96C86.4394 17.5067 86.2461 16.9 86.2461 16.14C86.2461 15.5 86.4194 14.92 86.7661 14.4C87.1261 13.8667 87.6461 13.4467 88.3261 13.14C89.0194 12.8333 89.8394 12.68 90.7861 12.68C92.1861 12.68 93.2861 13.0267 94.0861 13.72C94.8994 14.4133 95.3661 15.3333 95.4861 16.48H92.3261C92.2728 16.0933 92.0994 15.7867 91.8061 15.56C91.5261 15.3333 91.1528 15.22 90.6861 15.22C90.2861 15.22 89.9794 15.3 89.7661 15.46C89.5528 15.6067 89.4461 15.8133 89.4461 16.08C89.4461 16.4 89.6128 16.64 89.9461 16.8C90.2928 16.96 90.8261 17.12 91.5461 17.28C92.3728 17.4933 93.0461 17.7067 93.5661 17.92C94.0861 18.12 94.5394 18.4533 94.9261 18.92C95.3261 19.3733 95.5328 19.9867 95.5461 20.76C95.5461 21.4133 95.3594 22 94.9861 22.52C94.6261 23.0267 94.0994 23.4267 93.4061 23.72C92.7261 24.0133 91.9328 24.16 91.0261 24.16Z" fill="#F8FBFA"></path>
<g clip-path="url(#clip0_18_547)">
<path d="M2.48119 0.698747C2.51349 0.705982 2.54583 0.713258 2.5791 0.720698C3.84839 1.01083 5.15437 1.48616 6.30472 2.0964C6.35374 2.12057 6.40283 2.14453 6.45201 2.16834C7.15391 2.50961 7.82153 2.92138 8.46054 3.37073C8.48332 3.38664 8.50614 3.40254 8.52961 3.41891C8.89325 3.67348 9.24241 3.9457 9.59023 4.22177C9.73113 4.33354 9.87399 4.44227 10.0183 4.54948C10.1178 4.62771 10.2031 4.71835 10.291 4.80949C10.3312 4.8434 10.3715 4.87731 10.413 4.91225C10.529 5.01001 10.6321 5.11212 10.7384 5.22056C10.7891 5.27141 10.8398 5.32218 10.8906 5.37294C10.9467 5.42918 11.0027 5.48546 11.0587 5.54169C11.0865 5.5694 11.1142 5.5971 11.1427 5.62563C11.3048 5.78854 11.4588 5.95568 11.608 6.13068C11.6672 6.19929 11.7277 6.2658 11.7899 6.33157C12.0957 6.65504 12.3662 6.99899 12.6301 7.3579C12.6701 7.4122 12.7104 7.4663 12.751 7.52015C13.514 8.53423 14.1125 9.60166 14.4937 10.8166C14.5212 10.8934 14.5212 10.8934 14.5649 10.9772C14.6166 11.0879 14.608 11.1838 14.6026 11.3045C13.9609 11.6344 13.9609 11.6344 13.7891 11.5922C13.6631 11.4239 13.5836 11.2543 13.5094 11.0578C13.4883 11.003 13.4671 10.9482 13.4459 10.8934C13.4353 10.8659 13.4247 10.8384 13.4138 10.8101C13.2617 10.418 13.0873 10.0444 12.8874 9.67557C12.819 9.54835 12.7548 9.41972 12.6908 9.29019C12.4068 8.74926 12.0592 8.2667 11.6768 7.79265C11.6144 7.71434 11.5534 7.63562 11.4931 7.55566C11.0935 7.02739 10.6395 6.55639 10.1769 6.08468C10.1198 6.02643 10.0628 5.96806 10.0059 5.90968C9.80073 5.70213 9.59072 5.51218 9.36147 5.33225C9.25661 5.24757 9.16537 5.15216 9.07068 5.05613C8.96191 4.9666 8.84989 4.88163 8.73763 4.79666C8.53941 4.64534 8.34254 4.49337 8.15039 4.3342C8.02641 4.23308 7.90479 4.14704 7.76446 4.07132C7.66659 4.01665 7.57332 3.95593 7.47924 3.89485C7.44072 3.86998 7.40216 3.84515 7.36246 3.81954C7.2805 3.76667 7.19862 3.71365 7.11682 3.66058C6.80166 3.45968 6.47882 3.28868 6.14397 3.12425C6.06144 3.08335 5.9794 3.04154 5.89748 2.99932C5.55132 2.8212 5.20139 2.65825 4.84413 2.50414C4.78279 2.47689 4.72182 2.44873 4.66117 2.42C4.35049 2.27308 4.03237 2.15226 3.70912 2.03729C3.68137 2.02742 3.65363 2.01755 3.62508 2.00736C3.03182 1.79685 2.44263 1.61228 1.8229 1.49968C1.79377 1.49438 1.76465 1.48904 1.73463 1.48357C1.58994 1.4573 1.44518 1.43206 1.30001 1.40851C1.00165 1.35815 0.769147 1.30208 0.528752 1.10982C0.473311 0.985265 0.481812 0.93014 0.513499 0.798967C0.862945 0.172901 1.94822 0.57637 2.48119 0.698747Z" fill="#F8FBFA"></path>
<path d="M31.3001 0.521513C31.3299 0.520321 31.3598 0.519129 31.3905 0.517896C31.6566 0.514772 31.7988 0.611292 31.9916 0.796439C32.0526 0.904305 32.0526 0.904305 32.0323 1.03022C31.9675 1.15839 31.9191 1.22527 31.8085 1.31538C31.7062 1.34317 31.6151 1.36167 31.511 1.37531C31.4504 1.38448 31.3899 1.39369 31.3293 1.4029C31.2976 1.40746 31.2659 1.41202 31.2332 1.41675C30.5567 1.51496 29.9019 1.65361 29.246 1.84978C29.2095 1.86063 29.1731 1.87148 29.1356 1.88262C28.2094 2.16379 27.3025 2.56212 26.4393 3.00078C26.41 3.01566 26.3807 3.03054 26.3505 3.04584C25.7895 3.33285 25.2518 3.65525 24.7484 4.03714C24.6795 4.08848 24.6089 4.13765 24.5373 4.18504C24.3698 4.29961 24.2114 4.42408 24.0522 4.55004C24.0199 4.57552 23.9876 4.60101 23.9543 4.62728C23.2783 5.16229 23.2783 5.16229 23.0226 5.42612C22.7611 5.69541 22.7611 5.69541 22.6311 5.79867C22.5137 5.89544 22.4267 6.00651 22.3311 6.12494C22.2633 6.19347 22.1955 6.26199 22.1277 6.33048C22.0941 6.37122 22.0606 6.41187 22.026 6.4538C21.9243 6.57712 21.9243 6.57712 21.8251 6.6748C21.7161 6.78764 21.6282 6.90664 21.5363 7.03366C21.4769 7.11152 21.4769 7.11152 21.3803 7.2066C21.2147 7.3779 21.0844 7.57394 20.9481 7.76924C20.9241 7.8034 20.9001 7.83752 20.8753 7.87266C20.804 7.97473 20.7335 8.07738 20.6634 8.18031C20.6374 8.21834 20.6115 8.25632 20.5847 8.29545C20.4059 8.56142 20.2441 8.83334 20.0885 9.11345C20.0245 9.22777 19.9585 9.34016 19.8905 9.45209C19.6295 9.89046 19.4132 10.3298 19.2397 10.8112C19.2187 10.8604 19.1978 10.9096 19.1762 10.9602C19.0944 11.1543 19.025 11.3525 18.955 11.5511C18.7159 11.6053 18.5743 11.5755 18.3525 11.4766C18.3253 11.4654 18.2982 11.4541 18.2702 11.4425C18.1552 11.3936 18.0678 11.3534 17.9788 11.2634C17.9932 11.0901 18.0421 10.9464 18.111 10.7881C18.186 10.6122 18.256 10.4358 18.322 10.2562C18.4213 9.99311 18.5425 9.74576 18.6702 9.49575C18.7093 9.4153 18.7483 9.33477 18.7872 9.25428C19.0162 8.79261 19.2777 8.36036 19.5651 7.93367C19.591 7.89359 19.6169 7.85347 19.6436 7.81211C19.8309 7.52222 20.0324 7.24672 20.2441 6.97488C20.2971 6.90619 20.3492 6.83692 20.4012 6.76741C20.8046 6.23174 21.2696 5.75633 21.7388 5.27969C21.7685 5.24936 21.7983 5.21906 21.8291 5.18782C22.09 4.92494 22.3578 4.67842 22.6582 4.46235C22.7607 4.38014 22.849 4.28666 22.9412 4.1929C23.9148 3.30444 25.0697 2.56028 26.2512 1.9911C26.2921 1.97137 26.333 1.9516 26.3752 1.93125C26.6267 1.81105 26.8778 1.70027 27.1394 1.60428C27.2514 1.56256 27.3597 1.51553 27.4689 1.46698C28.5084 1.02685 29.603 0.765527 30.7103 0.575446C30.752 0.568047 30.7936 0.560647 30.8365 0.553001C30.9918 0.528419 31.1431 0.52361 31.3001 0.521513Z" fill="#F8FBFA"></path>
<path d="M18.6372 12.5429C18.6507 12.5476 18.6507 12.5476 18.7192 12.5715C18.8354 12.6154 18.9032 12.644 18.9723 12.7507C18.98 12.7754 18.9877 12.8001 18.9956 12.8255C18.9868 12.837 18.9868 12.837 18.9419 12.8952C18.4785 13.5257 18.2979 14.2646 18.3448 15.0453C18.3851 15.0589 18.4254 15.0725 18.4668 15.0864C18.4807 15.0452 18.4945 15.0039 18.5088 14.9613C18.8445 13.9915 19.4705 13.1701 20.3986 12.7147C21.1236 12.3886 21.9672 12.3158 22.7218 12.5968C23.3253 12.8776 23.7857 13.3089 24.0394 13.9354C24.0524 13.9666 24.0654 13.9979 24.0788 14.03C24.2844 14.633 24.1968 15.3572 23.9987 15.9497C23.9896 15.9776 23.9805 16.0054 23.971 16.0341C23.3783 17.8067 21.8796 19.2022 20.2557 20.0196C19.8117 20.2377 19.3481 20.3785 18.8736 20.5126C18.8697 20.537 18.8659 20.5614 18.8619 20.5865C18.7288 21.4116 18.526 22.1776 18.0194 22.8557C17.9963 22.8994 17.9733 22.943 17.9495 22.9881C17.85 23.1664 17.719 23.3071 17.5796 23.4544C17.5556 23.4804 17.5315 23.5065 17.5067 23.5333C17.2054 23.8558 16.8547 24.2121 16.3873 24.2328C16.0151 24.1843 15.78 24.0471 15.4975 23.8012C15.476 23.7838 15.4545 23.7665 15.4324 23.7486C15.2415 23.5912 15.0932 23.4168 14.9458 23.218C14.9227 23.187 14.8996 23.1561 14.8757 23.1242C14.7066 22.8942 14.5642 22.6614 14.4399 22.4035C14.4172 22.3608 14.3944 22.3181 14.371 22.2741C14.23 22.0046 14.1163 21.7365 14.0205 21.4478C14.0152 21.432 14.0152 21.432 13.9886 21.3521C13.9346 21.1828 13.9012 21.0271 13.8857 20.8492C13.8698 20.7554 13.8698 20.7554 13.8298 20.677C13.6774 20.5771 13.5138 20.5269 13.3417 20.4715C12.2467 20.042 11.3271 19.406 10.4537 18.6217C10.4241 18.5953 10.3945 18.569 10.3641 18.5419C10.0701 18.2628 9.83784 17.921 9.59948 17.594C9.58138 17.5693 9.56324 17.5446 9.54453 17.5192C9.30576 17.192 9.11283 16.8552 8.94867 16.4841C8.93752 16.4589 8.92634 16.4338 8.91482 16.4079C8.65722 15.8151 8.51799 15.1559 8.62326 14.5109C8.62749 14.4737 8.63168 14.4364 8.63599 14.398C8.71633 13.8019 9.06032 13.368 9.49637 12.9839C9.60782 12.9016 9.71955 12.8403 9.84353 12.7793C9.88466 12.7588 9.92578 12.7384 9.96813 12.7173C10.6041 12.4182 11.3876 12.4678 12.04 12.7022C12.4579 12.873 12.793 13.1145 13.1383 13.401C13.1736 13.4284 13.2089 13.4557 13.2452 13.4839C13.728 13.8922 14.0178 14.5383 14.3179 15.0864C14.3447 15.0864 14.3716 15.0864 14.3992 15.0864C14.4085 14.8467 14.3741 14.6297 14.3255 14.3953C14.3181 14.3588 14.3106 14.3222 14.3029 14.2846C14.2126 13.85 14.0855 13.4605 13.8857 13.0645C13.8284 12.946 13.787 12.828 13.7484 12.7022C13.9395 12.5618 14.1292 12.4746 14.3509 12.3939C14.3678 12.3877 14.3678 12.3877 14.4529 12.3564C15.8798 11.8457 17.2394 12.039 18.6372 12.5429ZM19.9135 14.0104C19.6242 14.4165 19.5193 14.8369 19.5651 15.3331C19.6165 15.5087 19.7073 15.6045 19.8498 15.7185C20.149 15.8822 20.4489 15.8496 20.7676 15.7596C21.0017 15.6819 21.1705 15.5774 21.3548 15.4153C21.3845 15.3942 21.4143 15.373 21.4449 15.3512C21.4689 15.3317 21.4929 15.3121 21.5175 15.292C21.5175 15.2648 21.5175 15.2377 21.5175 15.2098C21.5578 15.1962 21.5981 15.1826 21.6395 15.1686C21.9236 14.8349 22.0244 14.5314 22.0158 14.0946C21.9888 13.7812 21.8281 13.61 21.5963 13.4113C21.0126 13.0307 20.28 13.5679 19.9135 14.0104ZM10.7986 13.7199C10.6437 13.9844 10.659 14.2979 10.7246 14.5889C10.8717 15.0483 11.2085 15.4514 11.6269 15.6855C11.9682 15.8473 12.3178 15.9324 12.6947 15.8485C12.9113 15.7669 13.0287 15.6161 13.1431 15.4193C13.2463 15.1714 13.186 14.8655 13.1054 14.618C13.0123 14.4122 12.8807 14.2271 12.7315 14.0587C12.7047 14.0587 12.6779 14.0587 12.6502 14.0587C12.6435 14.0384 12.6435 14.0384 12.6095 13.9354C12.2741 13.6157 11.8367 13.37 11.3651 13.3831C11.1413 13.4242 10.9468 13.5467 10.7986 13.7199Z" fill="#F8FBFA"></path>
</g>
<defs>
<clipPath id="clip0_18_547">
<rect width="32.5" height="24.5" fill="white"></rect>
</clipPath>
</defs>
</svg>